<svg width="29" height="29" viewBox="0 0 29 29" fill="none" xmlns="http://www.w3.org/2000/svg">
<path d="M14.4879 2.41663C7.81788 2.41663 2.41663 7.82996 2.41663 14.5C2.41663 21.17 7.81788 26.5833 14.4879 26.5833C21.17 26.5833 26.5833 21.17 26.5833 14.5C26.5833 7.82996 21.17 2.41663 14.4879 2.41663ZM19.3333 19.3333C19.2215 19.4453 19.0887 19.5342 18.9425 19.5948C18.7964 19.6555 18.6397 19.6867 18.4814 19.6867C18.3232 19.6867 18.1665 19.6555 18.0203 19.5948C17.8741 19.5342 17.7413 19.4453 17.6295 19.3333L13.6541 15.3579C13.54 15.246 13.4491 15.1125 13.3869 14.9652C13.3247 14.818 13.2923 14.6598 13.2916 14.5V9.66663C13.2916 9.00204 13.8354 8.45829 14.5 8.45829C15.1645 8.45829 15.7083 9.00204 15.7083 9.66663V14.0045L19.3333 17.6295C19.8045 18.1008 19.8045 18.862 19.3333 19.3333Z" fill="url(#paint0_linear_101_941)"/>
<defs>
<linearGradient id="paint0_linear_101_941" x1="14.5" y1="2.41663" x2="14.5" y2="26.5833" gradientUnits="userSpaceOnUse">
<stop stop-color="#EEFF00"/>
<stop offset="1" stop-color="#C5CE47" stop-opacity="0.97"/>
</linearGradient>
</defs>
</svg>
